<svg width="1024" height="609" viewBox="0 0 1024 609" fill="none" xmlns="http://www.w3.org/2000/svg">
<path d="M206.369 196.441C212.542 203.547 216.953 212.128 219.602 222.186C222.251 232.243 222.648 241.918 220.794 251.213C218.9 260.353 215.42 268.183 210.354 274.705C200.149 288.1 188.178 296.671 174.439 300.416L145.495 308.306L152.402 334.532C153.34 338.09 153.898 340.84 154.079 342.781C154.373 344.525 154.208 346.726 153.584 349.383C152.523 354.15 147.053 357.88 137.173 360.573C126.368 363.519 119.285 362.382 115.925 357.162C114.306 354.784 112.783 350.888 111.357 345.472L77.433 216.665C76.4958 213.106 75.8802 210.455 75.5863 208.711C75.4061 206.77 75.6278 204.471 76.2515 201.813C77.3124 197.047 82.7826 193.317 92.662 190.623L142.214 177.115C155.798 173.412 170.3 174.765 185.721 181.175C193.313 184.246 200.196 189.334 206.369 196.441ZM163.852 259.273C168.483 258.011 172.588 255.068 176.168 250.443C179.749 245.819 180.642 240.103 178.849 233.295C177.056 226.487 173.473 221.992 168.1 219.808C162.686 217.47 157.587 216.953 152.801 218.257L123.857 226.148L134.676 267.227L163.852 259.273ZM221.168 167.034C220.23 163.475 219.615 160.824 219.321 159.08C219.141 157.139 219.285 154.861 219.754 152.246C220.815 147.479 226.286 143.749 236.165 141.056C245.581 138.489 251.997 138.978 255.413 142.525C257.259 144.509 258.504 146.408 259.148 148.223C259.945 149.995 260.813 152.661 261.75 156.22L290.05 263.675C291.517 269.245 292.918 272.678 294.251 273.973C295.544 275.113 297.735 275.262 300.822 274.42C304.064 273.536 306.265 273.102 307.428 273.117C308.549 272.977 310.024 273.238 311.853 273.901C315.47 275.07 318.46 280.142 320.824 289.116C323.391 298.864 323.416 305.241 320.899 308.249C317.619 312.128 308.171 315.202 292.554 317.469C280.26 319.162 271.503 317.321 266.281 311.945C259.962 305.542 254.623 294.062 250.263 277.507L221.168 167.034ZM389.312 174.926C387.956 166.009 392.913 160.015 404.181 156.943C410.202 155.301 414.801 154.545 417.978 154.674C421.156 154.803 423.59 155.88 425.282 157.907C427.128 159.891 428.373 161.79 429.016 163.605C429.773 165.223 430.62 167.811 431.558 171.369L452.951 252.6C453.888 256.158 454.447 258.908 454.627 260.849C454.921 262.593 454.833 264.773 454.364 267.388C453.262 272 448.467 275.463 439.976 277.778C431.641 280.05 425.741 280.58 422.279 279.369C418.93 277.96 416.494 275.307 414.971 271.411C411.419 281.168 402.928 287.877 389.498 291.538C376.223 295.157 362.264 292.412 347.622 283.303C332.979 274.194 323.539 261.594 319.301 245.503C315.022 229.257 317.005 213.542 325.25 198.36C333.608 182.981 344.657 173.418 358.396 169.673C363.644 168.242 368.674 167.866 373.485 168.544C378.296 169.223 381.775 170.182 383.921 171.421C386.027 172.505 387.824 173.673 389.312 174.926ZM359.884 234.688C361.228 239.794 364.458 243.889 369.571 246.972C374.644 249.901 380.037 250.587 385.748 249.03C391.46 247.473 395.618 244.1 398.222 238.913C400.981 233.683 401.709 228.593 400.405 223.642C399.06 218.536 395.965 214.322 391.119 211C386.428 207.635 380.995 206.795 374.82 208.478C368.8 210.119 364.43 213.632 361.712 219.016C359.148 224.358 358.539 229.582 359.884 234.688ZM553.938 117.61C564.105 119.15 569.942 122.782 571.45 128.507C572.184 131.292 572.259 134.091 571.676 136.903C571.093 139.715 570.822 141.199 570.863 141.354L546.015 293.894C545.555 297.17 545.065 299.709 544.546 301.508C544.182 303.266 543.257 305.093 541.771 306.991C540.286 308.888 538.153 310.216 535.375 310.973C532.596 311.731 528.2 311.686 522.186 310.838C512.019 309.298 506.202 305.743 504.735 300.173C503.757 296.459 506.5 276.723 512.966 240.965L446.411 175.778C441.979 171.514 439.437 168.144 438.785 165.668C437.481 160.717 440.345 154.63 447.377 147.406C451.81 142.881 455.493 140.218 458.426 139.419C461.359 138.619 463.915 138.586 466.093 139.319C468.272 140.051 469.93 141.009 471.069 142.191C472.321 143.176 478.461 149.214 489.489 160.303C500.63 171.196 511.161 181.343 521.082 190.744C521.202 188.058 522.864 177.406 526.068 158.789C529.231 140.017 530.901 130.026 531.079 128.817C531.411 127.565 531.991 125.998 532.819 124.114C534.133 120.936 536.565 118.864 540.115 117.896C543.82 116.886 548.428 116.791 553.938 117.61Z" fill="#01AFDF"/>
<path fill-rule="evenodd" clip-rule="evenodd" d="M749.706 249.16C730.164 257.414 707.38 259.363 684.723 253.186C632.961 239.075 601.465 187.903 614.373 138.89C627.282 89.8762 679.707 61.5819 731.469 75.6926C759.461 83.3235 781.527 101.793 793.848 124.899C815.874 111.157 844.06 106.386 872.052 114.017C923.814 128.128 955.31 179.3 942.401 228.313C929.493 277.327 877.067 305.621 825.306 291.511C802.648 285.334 783.874 272.056 771.007 254.967L749.706 249.16Z" fill="#041426" fill-opacity="0.85"/>
<mask id="path-3-inside-1_1103_262" fill="white">
<path fill-rule="evenodd" clip-rule="evenodd" d="M734.14 65.5498L874.724 103.874L874.724 103.875L874.724 103.875C926.486 117.986 957.982 169.158 945.074 218.171C932.165 267.185 879.74 295.479 827.978 281.369C805.321 275.192 786.546 261.914 773.679 244.825L752.377 239.018C732.835 247.272 710.051 249.22 687.394 243.044C635.632 228.933 604.136 177.761 617.045 128.747C629.953 79.734 682.379 51.4397 734.14 65.5504L734.14 65.5498Z"/>
</mask>
<path fill-rule="evenodd" clip-rule="evenodd" d="M734.14 65.5498L874.724 103.874L874.724 103.875L874.724 103.875C926.486 117.986 957.982 169.158 945.074 218.171C932.165 267.185 879.74 295.479 827.978 281.369C805.321 275.192 786.546 261.914 773.679 244.825L752.377 239.018C732.835 247.272 710.051 249.22 687.394 243.044C635.632 228.933 604.136 177.761 617.045 128.747C629.953 79.734 682.379 51.4397 734.14 65.5504L734.14 65.5498Z" fill="#F5F5F5"/>
<path d="M874.724 103.874L876.654 104.4L877.163 102.466L875.234 101.94L874.724 103.874ZM734.14 65.5498L734.65 63.6157L732.787 63.1079L732.23 64.9558L734.14 65.5498ZM874.724 103.875L872.794 103.349L872.285 105.283L874.215 105.809L874.724 103.875ZM874.724 103.875L875.234 101.941L875.234 101.941L874.724 103.875ZM945.074 218.171L943.144 217.645L945.074 218.171ZM827.978 281.369L828.487 279.434L827.978 281.369ZM773.679 244.825L775.268 243.624L774.852 243.072L774.189 242.891L773.679 244.825ZM752.377 239.018L752.886 237.084L752.223 236.903L751.592 237.169L752.377 239.018ZM687.394 243.044L687.903 241.11L687.394 243.044ZM734.14 65.5504L733.631 67.4844L735.493 67.9922L736.051 66.1444L734.14 65.5504ZM875.234 101.94L734.65 63.6157L733.631 67.4838L874.215 105.808L875.234 101.94ZM876.654 104.401L876.654 104.4L872.795 103.348L872.794 103.349L876.654 104.401ZM875.234 101.941L875.233 101.941L874.215 105.809L874.215 105.809L875.234 101.941ZM947.003 218.698C960.22 168.514 927.956 116.314 875.234 101.941L874.215 105.809C925.016 119.658 955.745 169.802 943.144 217.645L947.003 218.698ZM827.469 283.303C880.191 297.675 933.786 268.881 947.003 218.698L943.144 217.645C930.544 265.489 879.288 293.283 828.487 279.434L827.469 283.303ZM772.091 246.026C785.224 263.469 804.376 277.007 827.469 283.303L828.487 279.434C806.265 273.377 787.869 260.36 775.268 243.624L772.091 246.026ZM774.189 242.891L752.886 237.084L751.868 240.952L773.17 246.759L774.189 242.891ZM686.885 244.978C709.977 251.273 733.217 249.291 753.162 240.866L751.592 237.169C732.454 245.253 710.125 247.168 687.903 241.11L686.885 244.978ZM615.115 128.221C601.898 178.405 634.162 230.605 686.885 244.978L687.903 241.11C637.103 227.261 606.374 177.117 618.974 129.273L615.115 128.221ZM734.65 63.6163C681.927 49.2437 628.332 78.0377 615.115 128.221L618.974 129.273C631.575 81.4303 682.83 53.6357 733.631 67.4844L734.65 63.6163ZM732.23 64.9558L732.23 64.9564L736.051 66.1444L736.051 66.1437L732.23 64.9558Z" fill="black" fill-opacity="0.85" mask="url(#path-3-inside-1_1103_262)"/>
<ellipse cx="14.5714" cy="15.7325" rx="14.5714" ry="15.7325" transform="matrix(0.964793 0.263011 -0.254684 0.967024 868.725 145.722)" fill="#ECF102"/>
<ellipse cx="14.5714" cy="15.7325" rx="14.5714" ry="15.7325" transform="matrix(0.964793 0.263011 -0.254684 0.967024 893.514 185.092)" fill="#D30A0A"/>
<ellipse cx="14.5714" cy="15.7325" rx="14.5714" ry="15.7325" transform="matrix(0.964793 0.263011 -0.254684 0.967024 854.034 201.506)" fill="#20BF55"/>
<ellipse cx="14.5714" cy="15.7325" rx="14.5714" ry="15.7325" transform="matrix(0.964793 0.263011 -0.254684 0.967024 827.909 167.207)" fill="#3547E8"/>
<rect width="14.5714" height="78.6626" rx="1" transform="matrix(0.964793 0.263011 -0.254684 0.967024 697.353 109.875)" fill="#4F4F4F"/>
<rect width="15.7325" height="72.857" rx="1" transform="matrix(0.254684 -0.967024 0.964793 0.263011 657.216 147.852)" fill="#4F4F4F"/>
<path d="M170.4 413.7C174.667 415.567 176.8 417.867 176.8 420.6C176.8 421.733 176.267 423.567 175.2 426.1C174.133 428.567 173.233 430.733 172.5 432.6L161.5 459.4C160.5 462.333 158.833 464.4 156.5 465.6C155.5 466.067 154.233 466.3 152.7 466.3C151.167 466.3 149.667 465.733 148.2 464.6C146.8 463.4 145.867 462.2 145.4 461L144.6 459.3C144.067 457.967 142.1 452.767 138.7 443.7C138.033 445.3 137.033 447.933 135.7 451.6C134.433 455.2 133.6 457.467 133.2 458.4C132.867 459.267 132.633 459.867 132.5 460.2C132.433 460.467 132.167 461 131.7 461.8C131.233 462.6 130.7 463.3 130.1 463.9C128.5 465.5 126.667 466.3 124.6 466.3C122.533 466.3 120.8 465.733 119.4 464.6C118 463.4 117.067 462.2 116.6 461L101.5 424.2C100.833 422.2 100.5 420.9 100.5 420.3C100.5 417.633 102.4 415.533 106.2 414C108.333 413.133 110.067 412.7 111.4 412.7C112.733 412.7 113.8 413 114.6 413.6C115.467 414.133 116.067 414.7 116.4 415.3C116.733 415.833 117 416.4 117.2 417C118.333 419.667 120.7 425.933 124.3 435.8L130.2 419.6C130.6 418.267 131.333 417.1 132.4 416.1C134.333 414.167 136.3 413.2 138.3 413.2C140.3 413.2 142 413.733 143.4 414.8C144.867 415.867 145.867 416.933 146.4 418L147.2 419.7C150.533 429.033 152.5 434.367 153.1 435.7L159.2 419.1C160.8 414.833 163.2 412.7 166.4 412.7C167.667 412.7 169 413.033 170.4 413.7ZM182.297 422.1C182.297 420.567 182.33 419.433 182.397 418.7C182.53 417.9 182.83 417 183.297 416C184.23 414.267 186.83 413.4 191.097 413.4C194.297 413.4 196.564 413.967 197.897 415.1C199.03 416.033 199.63 417.467 199.697 419.4C199.764 420.067 199.797 421.033 199.797 422.3V457.3C199.797 458.833 199.73 460 199.597 460.8C199.53 461.533 199.23 462.4 198.697 463.4C197.83 465.133 195.264 466 190.997 466C186.797 466 184.23 465.1 183.297 463.3C182.83 462.3 182.53 461.433 182.397 460.7C182.33 459.967 182.297 458.8 182.297 457.2V422.1ZM198.697 403.6C198.23 404.533 197.364 405.2 196.097 405.6C194.83 406 193.13 406.2 190.997 406.2C188.93 406.2 187.264 406 185.997 405.6C184.73 405.2 183.83 404.5 183.297 403.5C182.83 402.5 182.53 401.633 182.397 400.9C182.33 400.1 182.297 398.933 182.297 397.4C182.297 395.867 182.33 394.733 182.397 394C182.53 393.2 182.83 392.333 183.297 391.4C184.23 389.6 186.83 388.7 191.097 388.7C195.297 388.7 197.83 389.6 198.697 391.4C199.23 392.4 199.53 393.3 199.597 394.1C199.73 394.833 199.797 395.967 199.797 397.5C199.797 399.033 199.73 400.2 199.597 401C199.53 401.733 199.23 402.6 198.697 403.6ZM238.385 431L231.885 430.6V444.4C231.885 446.2 232.152 447.5 232.685 448.3C233.285 449.1 234.352 449.5 235.885 449.5C237.485 449.5 238.685 449.567 239.485 449.7C240.352 449.767 241.252 450.067 242.185 450.6C243.718 451.467 244.485 453.7 244.485 457.3C244.485 461.5 243.552 464.067 241.685 465C240.685 465.467 239.785 465.767 238.985 465.9C238.252 465.967 237.152 466 235.685 466C228.752 466 223.485 464.433 219.885 461.3C216.285 458.167 214.485 452.867 214.485 445.4V430.6C213.218 430.8 211.852 430.9 210.385 430.9C208.918 430.9 207.685 430.333 206.685 429.2C205.752 428.067 205.285 426.133 205.285 423.4C205.285 420.667 205.452 418.7 205.785 417.5C206.118 416.233 206.585 415.333 207.185 414.8C208.252 413.933 209.585 413.5 211.185 413.5L214.485 413.9V403.6C214.485 402.067 214.518 400.933 214.585 400.2C214.718 399.467 215.052 398.667 215.585 397.8C216.452 396.133 219.018 395.3 223.285 395.3C227.818 395.3 230.518 396.533 231.385 399C231.718 400.067 231.885 401.767 231.885 404.1V413.9C234.818 413.633 237.018 413.5 238.485 413.5C240.018 413.5 241.152 413.567 241.885 413.7C242.685 413.767 243.585 414.067 244.585 414.6C246.318 415.467 247.185 418.033 247.185 422.3C247.185 426.5 246.285 429.067 244.485 430C243.485 430.467 242.585 430.767 241.785 430.9C241.052 430.967 239.918 431 238.385 431ZM281.907 413.5C288.574 413.5 294.107 416.033 298.507 421.1C302.974 426.167 305.207 432.367 305.207 439.7V457.3C305.207 458.833 305.14 460 305.007 460.8C304.94 461.533 304.64 462.4 304.107 463.4C303.24 465.133 300.674 466 296.407 466C292.34 466 289.807 465.133 288.807 463.4C288.274 462.4 287.94 461.5 287.807 460.7C287.74 459.9 287.707 458.7 287.707 457.1V439.6C287.707 436.867 286.94 434.733 285.407 433.2C283.874 431.667 281.907 430.9 279.507 430.9C277.174 430.9 275.107 431.633 273.307 433.1C271.507 434.5 270.474 436.1 270.207 437.9V457.3C270.207 458.833 270.14 460 270.007 460.8C269.94 461.533 269.64 462.4 269.107 463.4C268.24 465.133 265.674 466 261.407 466C257.207 466 254.64 465.1 253.707 463.3C253.24 462.3 252.94 461.433 252.807 460.7C252.74 459.967 252.707 458.8 252.707 457.2V397.4C252.707 395.867 252.74 394.733 252.807 394C252.94 393.2 253.24 392.333 253.707 391.4C254.64 389.6 257.24 388.7 261.507 388.7C265.707 388.7 268.24 389.6 269.107 391.4C269.64 392.4 269.94 393.3 270.007 394.1C270.14 394.833 270.207 395.967 270.207 397.5V419.6C273.54 415.533 277.44 413.5 281.907 413.5Z" fill="#3547E8"/>
<path d="M452.04 342.4C460.36 347.36 464.52 352.64 464.52 358.24C464.52 361.44 462.92 365.84 459.72 371.44L410.04 456.64C408.44 459.36 405.88 461.84 402.36 464.08C398.84 466.16 395.32 467.2 391.8 467.2C388.44 467.2 385.16 466.4 381.96 464.8C378.92 463.04 376.76 461.28 375.48 459.52L373.32 456.88L323.4 371.44C320.2 366.16 318.6 361.84 318.6 358.48C318.6 352.72 322.76 347.36 331.08 342.4C337.16 338.88 341.96 337.12 345.48 337.12C349 337.12 351.72 338.24 353.64 340.48C355.72 342.56 357.88 345.76 360.12 350.08L391.56 410.56L423 350.08C424.76 347.04 426.04 344.88 426.84 343.6C427.8 342.16 429.24 340.8 431.16 339.52C433.08 338.08 435.64 337.36 438.84 337.36C442.04 337.36 446.44 339.04 452.04 342.4ZM592.301 387.76C592.301 397.52 589.821 404.8 584.861 409.6C580.061 414.24 574.701 416.56 568.781 416.56H511.901C511.901 421.04 514.541 424.8 519.821 427.84C525.101 430.88 530.381 432.4 535.661 432.4C544.941 432.4 552.221 431.44 557.501 429.52L560.141 428.56C563.981 426.8 567.181 425.92 569.741 425.92C574.861 425.92 579.261 429.52 582.941 436.72C585.021 441.04 586.061 444.72 586.061 447.76C586.061 462 569.021 469.12 534.941 469.12C523.101 469.12 512.541 467.12 503.261 463.12C494.141 458.96 487.021 453.52 481.901 446.8C471.821 433.84 466.781 419.36 466.781 403.36C466.781 383.2 473.261 367.12 486.221 355.12C499.341 342.96 515.661 336.88 535.181 336.88C557.421 336.88 573.741 344.72 584.141 360.4C589.581 368.72 592.301 377.84 592.301 387.76ZM541.661 394.72C547.741 394.72 550.781 392.16 550.781 387.04C550.781 383.36 549.341 380.4 546.461 378.16C543.741 375.92 539.741 374.8 534.461 374.8C529.341 374.8 524.221 376.96 519.101 381.28C513.981 385.44 511.421 389.92 511.421 394.72H541.661ZM693.879 340.96C696.919 341.92 699.399 343.6 701.319 346C703.399 348.24 704.439 351.92 704.439 357.04C704.439 362.16 702.919 367.76 699.879 373.84C696.839 379.92 692.439 382.96 686.679 382.96C683.799 382.96 680.999 382.32 678.279 381.04C675.719 379.76 672.279 379.12 667.959 379.12C663.639 379.12 659.559 380.64 655.719 383.68C652.039 386.72 650.199 390.4 650.199 394.72V445.12C650.199 448.8 650.039 451.6 649.719 453.52C649.559 455.28 648.839 457.36 647.559 459.76C645.159 463.92 638.919 466 628.839 466C621.159 466 615.639 464.64 612.279 461.92C609.719 459.68 608.279 456.24 607.959 451.6C607.959 450 607.959 447.68 607.959 444.64V360.4C607.959 356.72 608.039 354 608.199 352.24C608.519 350.32 609.239 348.24 610.359 346C612.599 341.68 618.839 339.52 629.079 339.52C638.679 339.52 644.679 341.36 647.079 345.04C648.839 347.6 649.719 350.24 649.719 352.96C650.519 351.84 651.639 350.48 653.079 348.88C654.679 347.28 657.959 345.12 662.919 342.4C667.879 339.68 672.199 338.32 675.879 338.32C679.719 338.32 682.919 338.56 685.479 339.04C688.039 339.36 690.839 340 693.879 340.96ZM787.007 339.76C801.247 339.76 814.287 346.08 826.127 358.72C838.127 371.36 844.127 386.08 844.127 402.88C844.127 419.52 838.207 434.16 826.367 446.8C814.527 459.28 801.807 465.52 788.207 465.52C774.607 465.52 764.927 461.68 759.167 454C757.887 461.84 751.007 465.76 738.527 465.76C728.447 465.76 722.287 463.6 720.047 459.28C718.927 456.88 718.207 454.8 717.887 453.04C717.727 451.12 717.647 448.32 717.647 444.64V301.36C717.647 297.68 717.727 294.96 717.887 293.2C718.207 291.28 718.927 289.2 720.047 286.96C722.287 282.64 728.527 280.48 738.767 280.48C748.847 280.48 754.927 282.64 757.007 286.96C758.287 289.36 759.007 291.52 759.167 293.44C759.487 295.2 759.647 297.92 759.647 301.6V351.52C766.047 343.68 775.167 339.76 787.007 339.76ZM765.887 417.28C769.887 421.6 774.847 423.76 780.767 423.76C786.687 423.76 791.727 421.6 795.887 417.28C800.047 412.96 802.127 408.16 802.127 402.88C802.127 397.6 800.207 392.8 796.367 388.48C792.527 384 787.407 381.76 781.007 381.76C774.607 381.76 769.487 384 765.647 388.48C761.967 392.96 760.127 397.84 760.127 403.12C760.127 408.24 762.047 412.96 765.887 417.28ZM860.638 454.72C857.598 452.8 856.078 449.76 856.078 445.6C856.078 441.44 859.118 435.12 865.198 426.64C866.958 423.92 869.758 422.56 873.598 422.56C877.598 422.56 882.958 424.56 889.678 428.56C896.398 432.4 902.478 434.32 907.918 434.32C917.678 434.32 922.558 432.4 922.558 428.56C922.558 425.52 917.198 423.28 906.478 421.84C896.398 420.4 886.398 416.64 876.478 410.56C871.838 407.68 867.998 403.2 864.958 397.12C861.918 390.88 860.398 383.52 860.398 375.04C860.398 349.76 877.758 337.12 912.478 337.12C923.838 337.12 935.518 339.84 947.518 345.28C953.118 347.84 955.918 351.04 955.918 354.88C955.918 358.72 954.158 363.44 950.638 369.04C947.118 374.64 943.518 377.44 939.838 377.44C937.918 377.44 934.318 376.24 929.038 373.84C923.918 371.44 918.318 370.24 912.238 370.24C902.798 370.24 898.078 372 898.078 375.52C898.078 380.32 903.518 383.44 914.398 384.88C924.958 386 935.198 389.04 945.118 394C949.758 396.24 953.598 400.16 956.638 405.76C959.838 411.2 961.438 418.08 961.438 426.4C961.438 434.72 959.838 441.84 956.638 447.76C953.598 453.52 949.278 457.84 943.678 460.72C933.438 465.68 920.558 468.16 905.038 468.16C889.678 468.16 874.878 463.68 860.638 454.72Z" fill="#01AFDF"/>
</svg>
